<svg width="24" height="24" viewBox="0 0 24 24" xmlns="http://www.w3.org/2000/svg">
    <symbol width="24" height="24" viewBox="0 0 24 24" id="phone">
        <path d="M20.9552 16.0676V18.6268C20.9562 18.8644 20.9046 19.0995 20.8036 19.3172C20.7026 19.5349 20.5545 19.7303 20.3688 19.8909C20.1831 20.0515 19.9638 20.1738 19.725 20.2499C19.4862 20.326 19.2332 20.3543 18.9822 20.3329C16.1973 20.0477 13.5221 19.1507 11.1717 17.714C8.98503 16.4043 7.13107 14.6568 5.74154 12.5956C4.21201 10.3702 3.26015 7.83641 2.96308 5.1996C2.94046 4.9637 2.97021 4.72595 3.05042 4.50148C3.13063 4.27701 3.25954 4.07074 3.42896 3.8958C3.59838 3.72086 3.80459 3.5811 4.03445 3.48539C4.26432 3.38969 4.51281 3.34015 4.7641 3.33993H7.47921C7.91842 3.33585 8.34423 3.48245 8.67726 3.75241C9.01028 4.02236 9.2278 4.39725 9.28927 4.80719C9.40387 5.62619 9.6164 6.43034 9.9228 7.2043C10.0446 7.50963 10.0709 7.84146 9.99874 8.16048C9.92656 8.47949 9.75886 8.77232 9.51553 9.00426L8.36614 10.0876C9.65451 12.2233 11.5306 13.9916 13.7963 15.206L14.9457 14.1226C15.1918 13.8933 15.5025 13.7352 15.8409 13.6672C16.1794 13.5991 16.5314 13.624 16.8554 13.7388C17.6765 14.0276 18.5296 14.2279 19.3985 14.3359C19.8382 14.3944 20.2397 14.6031 20.5267 14.9224C20.8137 15.2417 20.9662 15.6492 20.9552 16.0676Z" fill="white"/>
    </symbol>
</svg>
