<svg width="34" height="34" viewBox="0 0 34 34" fill="none" xmlns="http://www.w3.org/2000/svg">
<path d="M17 2.125L4.25 6.375V19.125C4.25 26.1674 9.95762 31.875 17 31.875C24.0424 31.875 29.75 26.1674 29.75 19.125V6.375L17 2.125ZM27.3594 19.125C27.3594 24.8459 22.7209 29.4844 17 29.4844C11.2791 29.4844 6.64062 24.8459 6.64062 19.125V8.16797L17 4.51562L27.3594 8.16797V19.125Z" fill="white"/>
<path d="M12.564 15.7748C12.4532 15.6635 12.3215 15.5752 12.1765 15.5149C12.0315 15.4547 11.876 15.4237 11.719 15.4237C11.562 15.4237 11.4065 15.4547 11.2615 15.5149C11.1164 15.5752 10.9848 15.6635 10.874 15.7748C10.7627 15.8856 10.6744 16.0173 10.6141 16.1623C10.5538 16.3073 10.5228 16.4628 10.5228 16.6198C10.5228 16.7769 10.5538 16.9323 10.6141 17.0774C10.6744 17.2224 10.7627 17.3541 10.874 17.4648L15.1705 21.7613L15.2402 21.8311C15.345 21.936 15.4694 22.0193 15.6065 22.0762C15.7435 22.133 15.8904 22.1623 16.0387 22.1623C16.1871 22.1623 16.3339 22.133 16.471 22.0762C16.608 22.0193 16.7325 21.936 16.8373 21.8311L24.2582 14.4102C24.3631 14.3054 24.4464 14.1809 24.5033 14.0439C24.5601 13.9068 24.5894 13.76 24.5894 13.6116C24.5894 13.4633 24.5601 13.3164 24.5033 13.1794C24.4464 13.0424 24.3631 12.9179 24.2582 12.8131L24.1652 12.7201C24.0604 12.6151 23.9359 12.5318 23.7989 12.475C23.6619 12.4182 23.515 12.3889 23.3667 12.3889C23.2183 12.3889 23.0714 12.4182 22.9344 12.475C22.7974 12.5318 22.6729 12.6151 22.5681 12.7201L16.0371 19.2479L12.564 15.7748Z" fill="white"/>
</svg>
