<svg width="18" height="18" viewBox="0 0 18 18" fill="none" xmlns="http://www.w3.org/2000/svg">
<path d="M7.71752 2.89503L1.36502 13.5C1.23404 13.7268 1.16474 13.984 1.16401 14.2459C1.16327 14.5078 1.23113 14.7654 1.36084 14.9929C1.49054 15.2205 1.67756 15.4101 1.9033 15.5429C2.12903 15.6757 2.38562 15.7472 2.64752 15.75H15.3525C15.6144 15.7472 15.871 15.6757 16.0967 15.5429C16.3225 15.4101 16.5095 15.2205 16.6392 14.9929C16.7689 14.7654 16.8368 14.5078 16.836 14.2459C16.8353 13.984 16.766 13.7268 16.635 13.5L10.2825 2.89503C10.1488 2.67461 9.96056 2.49237 9.73591 2.36589C9.51127 2.23942 9.25782 2.17297 9.00002 2.17297C8.74221 2.17297 8.48876 2.23942 8.26412 2.36589C8.03947 2.49237 7.85122 2.67461 7.71752 2.89503V2.89503Z" stroke="#ED1B1B" stroke-linecap="round" stroke-linejoin="round"/>
<path d="M9 6.75V9.75" stroke="#ED1B1B" stroke-linecap="round" stroke-linejoin="round"/>
<path d="M9 12.75H9.00833" stroke="#ED1B1B" stroke-linecap="round" stroke-linejoin="round"/>
</svg>
