<svg width="786" height="546" viewBox="0 0 786 546" fill="none" xmlns="http://www.w3.org/2000/svg">
<path fill-rule="evenodd" clip-rule="evenodd" d="M698.538 398.935C694.887 401.608 694.444 401.745 689.453 401.745C683.688 401.745 675.185 403.283 669.944 405.275L666.576 406.555L665.782 402.729C665.237 400.105 664.644 398.903 663.896 398.903C663.119 398.903 662.919 399.364 663.202 400.502C663.421 401.381 663.791 403.379 664.024 404.941C664.443 407.752 664.408 407.806 660.792 409.914C652.817 414.564 643.881 426.452 640.914 436.36L640.014 439.365L637.206 436.826C635.266 435.074 634.169 434.517 633.66 435.026C633.151 435.534 633.619 436.348 635.172 437.655C638.751 440.667 638.985 441.553 638.127 448.842C637.389 455.101 637.919 463.951 639.235 467.382C639.635 468.424 639.466 468.604 638.384 468.284C634.281 467.071 631.707 466.959 631.707 467.993C631.707 468.706 633.02 469.304 635.791 469.851L639.875 470.658L642.951 476.683C647.225 485.051 653.868 491.982 664.296 498.952C668.835 501.986 674.143 504.929 676.097 505.495C679.281 506.418 672.827 506.561 613.773 506.879C570.566 507.112 547.898 507.479 547.898 507.945C547.898 508.415 583.175 508.716 651.949 508.835C744.147 508.995 756 508.893 756 507.947C756 507.02 752.936 506.871 732.739 506.815L709.479 506.75L713.385 505.482C715.534 504.785 719.468 503.176 722.13 501.907C727.01 499.581 728.861 499.424 733.9 500.912C736.984 501.822 735.173 499.51 731.835 498.275C728.881 497.182 728.81 497.091 730.304 496.292C732.754 494.981 739.233 486.709 741.85 481.554C743.369 478.561 745.446 475.846 747.625 474.008C749.497 472.43 751.028 470.869 751.028 470.539C751.028 469.53 749.573 469.868 747.473 471.364L745.473 472.788L746.591 469.055C747.412 466.312 747.748 461.654 747.858 451.471C747.941 443.852 748.248 436.58 748.542 435.31C749.118 432.818 748.059 432.086 746.893 434.17C746.375 435.096 745.987 434.58 745.025 431.684C744.27 429.41 743.402 428.029 742.728 428.029C741.981 428.029 741.797 428.416 742.135 429.272C745.709 438.305 747.085 455.552 745.039 465.652C739.975 490.65 722.873 504.903 696.694 505.946C692.007 506.133 686.893 505.972 685.33 505.588C682.96 505.006 683.913 504.879 691.093 504.819C695.825 504.78 701.417 504.422 703.519 504.023C712.21 502.375 721.234 496.384 726.771 488.586C728.589 486.026 731.834 481.958 733.982 479.544C736.131 477.132 738.757 473.56 739.818 471.608C747.227 457.98 744.358 440.064 732.506 425.946L728.337 420.98L729.131 417.028C729.567 414.855 729.739 412.893 729.514 412.667C728.619 411.772 727.648 413.303 727.195 416.324C726.933 418.073 726.604 419.504 726.465 419.504C726.325 419.504 724.733 418.465 722.926 417.195C719.72 414.942 719.65 414.813 720.05 411.868C720.368 409.528 720.231 408.848 719.441 408.848C718.847 408.848 718.235 409.842 717.975 411.228L717.529 413.608L713.258 411.883C708.023 409.768 703.841 408.98 704.241 410.183C704.396 410.646 707.076 411.911 710.197 412.993C723.778 417.705 734.201 428.033 739.535 442.064C741.941 448.394 742.218 460.437 740.088 466.033C738.777 469.474 734.628 476.505 734.175 476.052C734.051 475.929 734.433 473.785 735.021 471.286C735.61 468.788 736.097 464.543 736.102 461.853C736.108 459.164 736.484 455.725 736.937 454.213C737.813 451.289 737.162 449.622 735.905 451.57C735.291 452.521 734.861 451.869 733.561 448.018C732.183 443.936 732.072 442.848 732.742 439.93C733.167 438.076 733.322 436.365 733.085 436.13C732.361 435.404 731.141 436.561 731.141 437.974C731.141 440.261 729.952 440.187 728.146 437.789C727.038 436.316 725.985 433.325 725.224 429.483C724.089 423.749 723.15 421.578 722.211 422.515C721.975 422.752 722.292 425.418 722.917 428.44C723.542 431.462 723.954 434.033 723.832 434.155C723.711 434.276 722.457 434.021 721.047 433.589C718.425 432.784 715.83 433.206 716.52 434.324C716.732 434.666 718.168 435.148 719.711 435.394C724.108 436.098 724.545 436.953 725.107 445.948C725.708 455.569 725.249 457.603 720.684 465.535C713.516 477.99 704.45 487.173 694.303 492.256C687.879 495.475 685.156 496.118 689.947 493.284C692.096 492.014 695.961 488.879 698.538 486.318C702.919 481.964 705.198 478.214 708.924 469.23C709.614 467.566 709.694 467.667 710.183 470.828C710.698 474.155 711.641 475.163 712.396 473.195C712.608 472.64 712.308 470.324 711.728 468.047C710.712 464.054 710.735 463.762 712.384 459.841C713.326 457.605 714.095 455.344 714.095 454.817C714.095 454.289 715.214 452.551 716.581 450.953C717.949 449.355 719.067 447.699 719.067 447.273C719.067 445.995 717.603 446.395 716.274 448.037C715.065 449.529 715.016 449.335 714.598 441.466C714.36 437.005 713.836 432.258 713.432 430.915C712.877 429.07 712.955 427.609 713.752 424.926C714.331 422.974 714.806 420.769 714.806 420.026C714.806 417.763 713.183 419.06 712.365 421.978L711.595 424.723L710.657 422.665C710.014 421.252 709.96 420.528 710.487 420.352C710.909 420.211 711.254 419.609 711.254 419.014C711.254 418.337 710.85 418.087 710.175 418.345C709.477 418.613 707.844 417.461 705.555 415.086C702.945 412.378 701.806 411.621 701.22 412.207C700.635 412.792 701.195 413.733 703.354 415.787C704.965 417.32 706.283 418.933 706.283 419.373C706.283 419.812 703.806 421.831 700.778 423.859C693.935 428.444 683.382 438.926 679.324 445.171C676.743 449.141 675.802 450.017 673.338 450.738C671.731 451.209 669.668 452.071 668.755 452.654C667.843 453.238 666.924 453.543 666.713 453.333C666.201 452.82 672.022 441.13 673.332 440.042C674.118 439.389 674.789 439.38 676.152 440C677.135 440.449 678.404 440.815 678.972 440.815C680.786 440.815 680.077 439.299 677.873 438.467C676.701 438.024 675.742 437.341 675.742 436.949C675.742 435.536 684.114 428.307 688.39 426.027C690.794 424.746 694.875 423.256 697.461 422.714C700.047 422.173 702.329 421.563 702.533 421.36C702.736 421.157 701.842 419.65 700.544 418.012C695.952 412.213 686.178 409.68 677.236 411.971C663.697 415.44 653.131 426.684 647.041 444.106C646.103 446.789 644.677 450.743 643.871 452.891C642.81 455.723 642.395 458.559 642.362 463.192C642.311 470.507 641.549 470.144 640.225 462.173C638.616 452.49 640.763 440.371 646.017 429.488C649.999 421.237 658.046 413.049 665.799 409.359C673.94 405.484 678.446 404.5 689.947 404.083C699.206 403.749 704.635 404.143 712.497 405.721C714.279 406.079 714.806 405.942 714.806 405.123C714.806 404.039 711 403.054 702.799 402.018L698.96 401.532L701.207 399.685C703.265 397.993 704.202 396.017 702.909 396.093C702.616 396.111 700.649 397.389 698.538 398.935ZM693.004 414.783C694.44 415.383 696.471 416.729 697.515 417.775L699.416 419.675L694.228 421.32C691.375 422.225 687.465 423.945 685.539 425.142C682.757 426.873 682.11 427.064 682.389 426.076C683.582 421.838 683.641 420.214 682.604 420.214C681.67 420.214 680.077 425.079 679.977 428.241C679.962 428.71 678.387 430.769 676.477 432.817C673.045 436.495 672.965 436.534 669.731 436.091C667.839 435.832 666.555 435.31 666.689 434.854C666.815 434.421 668.78 433.159 671.054 432.05C674.024 430.601 674.972 429.816 674.42 429.263C673.867 428.71 673.131 428.73 671.809 429.332C669.63 430.325 669.812 429.883 673.417 425.428C674.974 423.505 675.534 422.301 675.021 421.984C673.855 421.263 671.797 423.427 667.492 429.898C664.584 434.268 663.17 435.773 661.703 436.054C660.635 436.26 659.639 436.306 659.49 436.159C659.34 436.012 660.511 433.827 662.092 431.306C664.741 427.08 665.066 425.897 663.578 425.897C663.267 425.897 661.37 428.588 659.362 431.875C655.558 438.102 649.485 444.191 650.527 440.734C652.63 433.76 660.714 423.015 666.983 418.863C669.892 416.935 670.912 416.663 675.213 416.663C678.766 416.663 680.042 416.422 679.832 415.795C679.673 415.316 678.768 414.724 677.82 414.477C676.146 414.042 676.158 414.018 678.228 413.632C681.791 412.968 690.235 413.626 693.004 414.783ZM709.419 425.246C710.496 427.937 710.494 428.419 709.391 431.919L708.201 435.693L705.999 434.349C701.214 431.431 695.629 433.819 695.629 438.784C695.629 441.545 698.025 444.367 700.369 444.367C702.604 444.367 702.454 443.23 700.068 442.092C696.27 440.28 697.652 435.132 701.938 435.132C703.728 435.132 707.011 437.348 706.979 438.534C706.939 440.065 701.553 452.145 700.956 452.045C700.565 451.981 699.052 451.459 697.594 450.885C695.38 450.016 695.009 449.581 695.344 448.249C695.924 445.938 694.343 445.342 693.502 447.554C692.863 449.236 692.553 449.362 690.13 448.923C688.662 448.658 687.365 448.36 687.246 448.261C687.128 448.162 688.855 446.111 691.083 443.704C693.818 440.749 694.901 439.093 694.415 438.607C693.93 438.121 692.106 439.605 688.803 443.174C685.292 446.968 683.24 448.606 681.539 448.971C679.227 449.467 679.19 449.438 680.043 447.812C681.658 444.734 687.779 437.451 692.164 433.39C697.03 428.885 706.04 422.346 707.382 422.346C707.864 422.346 708.781 423.65 709.419 425.246ZM712.52 444.722C712.527 449.02 712.277 453.335 711.965 454.312C711.571 455.544 711.374 454.36 711.325 450.448C711.286 447.346 710.899 443.03 710.465 440.858C709.854 437.8 709.879 436.427 710.579 434.777L711.481 432.646L711.994 434.777C712.276 435.949 712.513 440.424 712.52 444.722ZM662.247 438.151C662.247 438.249 661.137 441.433 659.781 445.228C656.192 455.273 655.407 462.675 656.874 472.676C657.517 477.065 658.657 482.625 659.406 485.034C660.156 487.444 660.657 489.527 660.519 489.664C660.055 490.129 655.832 482.169 654.327 477.993C651.994 471.519 651.675 458.504 653.66 450.842C655.617 443.294 657.198 440.008 659.406 438.892C661.071 438.051 662.247 437.744 662.247 438.151ZM670.946 438.386C671.174 438.614 670.11 441.117 668.582 443.949C667.054 446.782 665.17 450.944 664.394 453.198C663.619 455.453 662.335 458.349 661.54 459.636C660.745 460.921 659.615 463.207 659.029 464.714C657.973 467.429 657.967 467.403 658.334 461.741C658.744 455.415 660.605 447.936 663.265 441.92C664.951 438.108 665.104 437.974 667.772 437.974C669.291 437.974 670.719 438.16 670.946 438.386ZM728.685 441.825C729.649 443.298 729.682 443.974 728.918 446.528C728.199 448.926 727.922 449.251 727.502 448.182C726.92 446.701 726.688 440.105 727.219 440.105C727.405 440.105 728.065 440.879 728.685 441.825ZM652.464 447.031C650.883 451.811 650.636 453.823 650.586 462.302C650.554 467.673 650.461 472.068 650.378 472.069C650.295 472.071 649.905 470.873 649.512 469.407C648.115 464.21 647.354 456.45 647.811 452.073C648.216 448.199 648.633 447.247 651.09 444.58C652.638 442.9 653.991 441.526 654.094 441.526C654.199 441.526 653.464 444.003 652.464 447.031ZM709.209 451.469C709.197 455.863 709.058 459.587 708.901 459.744C708.743 459.902 707.449 458.609 706.025 456.87L703.435 453.71L705.689 447.951C707.036 444.507 708.202 442.45 708.587 442.835C708.94 443.189 709.221 447.075 709.209 451.469ZM732.518 451.238C735.644 463.651 732.967 478.267 726.709 482.96C724.499 484.616 718.849 487.699 718.021 487.699C717.805 487.699 718.365 486.501 719.265 485.036C720.164 483.571 721.484 481.038 722.198 479.407C723.068 477.418 724.637 475.664 726.962 474.079C728.869 472.78 730.429 471.317 730.43 470.828C730.432 469.532 729.133 469.741 727.061 471.371C726.061 472.158 725.136 472.695 725.006 472.565C724.876 472.435 725.239 470.113 725.812 467.405C726.386 464.697 726.855 461.682 726.855 460.706C726.856 458.387 730.551 447.199 731.187 447.592C731.457 447.758 732.055 449.399 732.518 451.238ZM682.134 451.184C682.134 451.416 681.536 452.455 680.804 453.492C680.072 454.53 678.501 457.312 677.314 459.675C675.969 462.354 674.462 464.289 673.318 464.811C672.307 465.271 671.481 465.523 671.481 465.37C671.481 464.695 676.6 453.214 677.251 452.43C677.876 451.677 678.67 451.39 681.602 450.857C681.895 450.804 682.134 450.951 682.134 451.184ZM691.248 451.382C693.104 452.559 684.56 470.62 674.145 487.532C671.417 491.962 669.086 495.486 668.965 495.365C668.608 495.008 670.712 483.465 671.98 478.82C673.866 471.911 678.271 461.681 681.794 456.027C684.914 451.02 685.205 450.761 687.689 450.771C689.126 450.777 690.728 451.052 691.248 451.382ZM673.356 455.555C669.152 463.903 666.601 473.38 665.853 483.437L665.403 489.475L664.536 484.8C664.059 482.228 663.668 476.7 663.668 472.515V464.907L666.864 461.489C671.36 456.682 671.273 454.301 666.76 458.675C664.74 460.633 664.509 460.715 664.865 459.352C665.33 457.573 668.629 454.861 672.222 453.301C673.572 452.716 674.762 452.224 674.866 452.209C674.971 452.194 674.291 453.699 673.356 455.555ZM697.795 453.265C698.947 453.861 699.891 454.817 699.891 455.39C699.891 457.051 693.166 469.529 688.262 476.968C683.643 483.976 676.033 492.797 673.382 494.216L671.889 495.015L673.244 492.955C679.425 483.564 689.234 465.113 692.75 456.266C693.643 454.019 694.672 452.181 695.037 452.181C695.401 452.181 696.643 452.669 697.795 453.265ZM646.163 462.688C646.934 470.46 650.675 479.858 656.616 488.943C659.123 492.776 657.576 491.548 653.421 486.404C646.591 477.95 643.28 468.347 644.28 459.899C644.801 455.496 645.562 456.624 646.163 462.688ZM707.703 463.56C707.703 466.941 694.308 481.137 684.949 487.675L680.408 490.846L683.935 486.594C685.874 484.256 688.835 480.224 690.515 477.636C693.285 473.367 693.964 472.781 697.795 471.347C700.12 470.478 702.021 469.506 702.021 469.185C702.021 467.963 700.658 467.857 698.19 468.889C696.782 469.478 695.629 469.814 695.629 469.638C695.629 469.461 697.133 466.373 698.971 462.776L702.314 456.235L705.009 459.272C706.491 460.942 707.703 462.872 707.703 463.56ZM721.947 473.616C719.685 480.675 715.343 488.281 712.543 490.088C710.781 491.226 699.952 494.433 695.274 495.204L692.433 495.672L695.984 493.755C705.568 488.582 714.983 479.352 720.731 469.494C724.422 463.165 724.839 464.582 721.947 473.616ZM661.732 476.689C661.998 485.374 661.959 485.712 661.08 482.372C660.053 478.476 659.833 471.475 660.618 467.72C661.269 464.605 661.394 465.609 661.732 476.689ZM672.543 470.396C671.91 471.904 670.628 476.014 669.694 479.53C668.343 484.621 667.99 485.375 667.963 483.23C667.902 478.308 670.015 469.684 671.617 468.324C673.65 466.599 673.902 467.162 672.543 470.396ZM703.354 476.511C699.238 484.673 690.241 491.869 679.555 495.545C674.107 497.42 674.067 497.338 678.96 494.316C686.601 489.597 693.758 483.925 699.535 478.006C702.66 474.806 705.302 472.162 705.405 472.13C705.509 472.098 704.585 474.07 703.354 476.511ZM723.554 489.6C718.205 496.153 709.735 501.088 702.021 502.148L698.825 502.587L703.442 500.18C705.981 498.856 709.468 496.545 711.192 495.045C713.906 492.682 724.014 486.631 725.685 486.37C726.003 486.32 725.045 487.773 723.554 489.6ZM707.78 495.066C706.377 496.757 698.21 500.402 693.245 501.554C689.21 502.489 687.526 502.531 682.429 501.817C679.109 501.353 676.646 500.757 676.954 500.494C677.264 500.23 680.807 499.624 684.827 499.146C688.847 498.667 695.559 497.38 699.742 496.286C709.112 493.835 708.756 493.889 707.78 495.066ZM465.177 366.554C464.997 366.847 464.622 368.924 464.343 371.171C464.063 373.418 463.683 375.256 463.497 375.256C463.312 375.256 462.57 374.536 461.848 373.657C459.238 370.478 456.269 374.885 458.612 378.461C459.642 380.034 459.618 380.347 458.291 382.599C455.302 387.664 454.661 393.895 455.401 410.656C455.923 422.48 455.498 455.641 454.78 459.079C454.739 459.275 453.671 456.398 452.407 452.686C451.142 448.974 449.096 444.075 447.859 441.798C446.039 438.45 445.737 437.32 446.28 435.891C446.65 434.919 446.952 432.101 446.952 429.629C446.952 424.62 445.802 423.291 443.478 425.615C442.201 426.892 442.101 426.793 439.805 422.048C436.056 414.297 434.196 415.698 434.145 426.313C434.125 430.691 434.046 430.921 433.031 429.599C432.431 428.818 431.659 427.699 431.316 427.113C430.833 426.288 430.403 426.224 429.411 426.829C426.82 428.412 427.7 435.219 430.776 437.373C431.844 438.122 431.999 438.643 431.456 439.657C429.666 443.002 429.206 449.207 430.233 456.134C431.271 463.133 432.317 477.526 433.14 496.156L433.601 506.595L429.801 506.812C427.71 506.931 426 507.349 426 507.74C426 508.8 451.535 509.278 484.595 508.835C503.042 508.589 513.36 508.195 513.36 507.74C513.36 507.349 511.523 506.933 509.276 506.816C507.03 506.699 505.193 506.312 505.193 505.956C505.193 502.183 511.277 450.166 512.752 441.321C514.003 433.822 513.732 428.447 511.926 424.954C510.922 423.012 510.887 422.545 511.71 422.084C513.017 421.353 516.951 413.064 516.301 412.413C516.021 412.133 514.765 412.292 513.511 412.767C511.381 413.573 511.135 413.501 509.809 411.682C506.565 407.232 505.318 406.13 504.472 406.962C504.021 407.405 503.472 409.75 503.253 412.171L502.854 416.574L501.153 414.739C500.218 413.731 499.21 412.905 498.914 412.905C497.864 412.905 496.67 414.63 496.67 416.144C496.67 416.988 495.536 418.881 494.151 420.35C491.356 423.314 488.282 429.042 486.397 434.795C485.718 436.872 485.098 438.47 485.021 438.347C484.943 438.224 485.263 429.972 485.731 420.009C486.921 394.679 485.811 388.267 478.933 380.74C475.699 377.201 475.557 376.884 476.472 375.232C478.394 371.76 477.325 370.949 473.153 372.716C472.306 373.075 471.408 372.266 469.704 369.611C467.581 366.302 465.989 365.227 465.177 366.554ZM469.439 372.06C471.415 375.188 472.71 375.964 473.587 374.545C473.828 374.154 474.3 373.835 474.635 373.835C474.97 373.835 474.528 375.194 473.652 376.854C472.171 379.662 471.832 379.888 468.804 380.087C465.001 380.337 460.887 378.827 459.792 376.779C458.741 374.815 459.963 374.254 461.527 375.983C462.226 376.755 463.235 377.387 463.771 377.387C465.054 377.387 466.129 374.434 466.129 370.905C466.129 367.557 466.726 367.765 469.439 372.06ZM480.906 386.506C484.631 393.558 484.874 396.427 483.902 421.785C483.003 445.244 482.82 446.642 478.361 464.306C478.079 465.422 477.761 451.996 477.653 434.47C477.475 405.281 476.723 385.687 475.602 381.001L475.162 379.163L476.972 380.823C477.967 381.736 479.737 384.293 480.906 386.506ZM465.417 382.121C465.613 382.317 465.765 395.478 465.753 411.366C465.737 433.088 465.419 443.779 464.47 454.462C463.184 468.949 460.409 492.233 458.835 501.748L457.961 507.029L455.556 507.259L453.151 507.489L453.612 502.642C456.309 474.305 457.759 440.853 457.488 413.26L457.251 389.108L459.201 384.945C461.031 381.037 461.269 380.813 463.105 381.274C464.181 381.544 465.221 381.924 465.417 382.121ZM474.243 384.313C476.166 397.444 476.732 470.846 475.025 485.718C474.442 490.797 473.771 497.75 473.534 501.169L473.104 507.385H466.373C460.289 507.385 459.678 507.264 460.024 506.141C461.293 502.016 465.374 466.258 466.935 445.582C467.895 432.873 468.148 394.373 467.322 386.842L466.762 381.734L469.819 381.461C471.501 381.31 473.072 381.131 473.312 381.063C473.552 380.995 473.971 382.457 474.243 384.313ZM508.034 412.195C510.46 415.978 510.852 416.189 513.147 414.96C514.554 414.207 514.544 414.304 512.914 417.269C511.343 420.124 510.964 420.382 508.024 420.596C503.68 420.912 499.579 419.6 498.846 417.66C497.9 415.159 498.802 414.773 500.899 416.782C502.651 418.46 502.935 418.532 503.785 417.507C504.303 416.883 504.871 414.632 505.048 412.507C505.224 410.382 505.455 408.643 505.562 408.643C505.668 408.643 506.78 410.241 508.034 412.195ZM441.667 428.293C442.259 428.52 443.371 428.138 444.138 427.444C445.503 426.208 445.532 426.247 445.532 429.443C445.532 432.992 444.51 436.363 443.179 437.21C442.715 437.505 440.522 437.751 438.306 437.758C435.024 437.766 433.882 437.436 432.144 435.973C429.811 434.01 428.575 430.292 429.835 429.031C430.372 428.494 430.617 428.486 430.617 429.006C430.617 429.422 431.288 430.617 432.11 431.661C434.426 434.607 435.404 433.056 436.012 425.469L436.536 418.943L438.563 423.411C439.678 425.869 441.074 428.065 441.667 428.293ZM500.909 422.338C500.921 422.642 499.986 424.763 498.831 427.052C493.05 438.505 486.112 464.32 482.036 489.546C480.608 498.38 479.331 506.009 479.199 506.497C479.066 506.985 478.1 507.385 477.052 507.385H475.146L475.611 499.237C476.568 482.478 479.668 464.529 484.65 446.896C488.645 432.759 491.25 426.4 494.616 422.576C497.458 419.347 497.505 419.326 499.187 420.549C500.121 421.229 500.896 422.033 500.909 422.338ZM505.761 427.463C506.056 434.269 503.66 450.014 500.195 464.052C496.531 478.901 494.613 490.046 494.052 499.748L493.611 507.385H487.319H481.027L481.446 504.365C485.92 472.086 493.129 443.212 500.693 427.269C502.494 423.473 503.49 422.118 504.357 422.283C505.31 422.465 505.59 423.499 505.761 427.463ZM510.347 425.514C512.023 429.779 512.36 432.967 511.574 437.101C510.548 442.489 507.014 471.417 505.199 489.27C503.178 509.147 503.729 507.385 499.539 507.385C497.616 507.385 495.873 507.11 495.665 506.773C494.455 504.814 498.123 478.975 501.276 467.249C504.255 456.171 506.541 443.45 507.436 432.973C507.911 427.406 508.524 422.85 508.799 422.85C509.075 422.85 509.771 424.05 510.347 425.514ZM435.503 452.153C435.975 459.284 437.306 474.313 438.461 485.553C439.615 496.792 440.56 506.322 440.56 506.729C440.56 507.152 439.413 507.375 437.897 507.25L435.233 507.029L435.075 502.057C434.588 486.728 433.279 466.121 432.301 458.369C431.684 453.485 431.35 448.036 431.558 446.259C431.948 442.921 433.325 439.189 434.165 439.189C434.428 439.189 435.03 445.022 435.503 452.153ZM447.219 444.339C448.567 447.171 450.705 452.846 451.972 456.948C454.356 464.669 454.705 469.39 453.599 478.909L453.151 482.756L451.153 473.002C448.638 460.73 446.646 452.992 444.369 446.648C441.602 438.938 441.638 439.189 443.292 439.189C444.426 439.189 445.336 440.383 447.219 444.339ZM438.426 445.05C438.885 447.882 441.293 461.388 443.777 475.063C446.26 488.737 448.511 501.604 448.779 503.655L449.266 507.385H446.01C442.057 507.385 442.668 509.981 439.823 481.101C437.683 459.385 436.437 439.899 437.189 439.899C437.41 439.899 437.966 442.217 438.426 445.05ZM443.689 450.062C445.667 456.123 448.249 467.283 450.892 481.202C452.405 489.167 452.618 491.803 452.218 497.617C451.955 501.426 451.462 504.543 451.122 504.543C450.782 504.543 450.503 503.91 450.503 503.137C450.503 502.364 448.287 489.497 445.577 474.545C442.868 459.592 440.461 445.92 440.228 444.162C439.814 441.034 439.828 441.005 440.875 442.84C441.463 443.871 442.729 447.121 443.689 450.062Z" fill="#000E33"/>
<rect x="2" y="2" width="782" height="542" rx="20" stroke="#000E33" stroke-width="3"/>
<path d="M140 31.2519V22.0934C140 21.3143 139.069 20.9334 138.535 21.4874L135.467 24.5691C133.853 22.9473 131.903 21.703 129.755 20.925C127.607 20.1469 125.315 19.8542 123.042 20.0677C115.821 20.7256 109.875 26.5601 109.082 33.8142C108.663 37.8817 109.853 41.9516 112.394 45.146C114.935 48.3404 118.625 50.4032 122.666 50.8894C126.708 51.3756 130.778 50.2463 133.998 47.745C137.218 45.2437 139.331 41.571 139.879 37.5192C140 36.4804 139.19 35.5801 138.156 35.5801C137.294 35.5801 136.57 36.2207 136.467 37.069C135.726 43.1112 130.539 47.7857 124.317 47.6992C117.923 47.6126 112.529 42.1937 112.426 35.7533C112.322 29.0012 117.786 23.4611 124.49 23.4611C127.816 23.4611 130.832 24.8288 133.02 27.0102L129.418 30.6286C128.867 31.1826 129.246 32.1175 130.022 32.1175H139.138C139.621 32.1175 140 31.7367 140 31.2519Z" fill="#000E33"/>
<path d="M36 22L23 35L36 48" stroke="#000E33" stroke-width="3" stroke-linecap="round"/>
<path d="M59 22L72 35L59 48" stroke="#000E33" stroke-width="3" stroke-linecap="round"/>
<line x1="2" y1="67.5" x2="784" y2="67.5" stroke="#000E33" stroke-width="3"/>
<rect x="158.5" y="17.5" width="610" height="37" rx="11.5" stroke="#000E33" stroke-width="3"/>
<path d="M176.002 43V36.8611C176.002 35.0648 177.207 33.928 178.753 33.928C180.185 33.928 181.186 34.8147 181.186 36.7246V43H183.869V36.1562C183.869 33.2686 182.05 31.4042 179.412 31.4042C178.071 31.4042 176.843 31.9726 176.002 32.8594V31.6316H173.319V43H176.002ZM192.422 31.4042C189.17 31.4042 186.51 34.0417 186.51 37.3158C186.51 40.5672 189.17 43.2274 192.422 43.2274C195.696 43.2274 198.333 40.5672 198.333 37.3158C198.333 34.0417 195.696 31.4042 192.422 31.4042ZM189.193 37.3158C189.193 35.5423 190.648 34.0872 192.422 34.0872C194.195 34.0872 195.65 35.5423 195.65 37.3158C195.65 39.0893 194.195 40.5444 192.422 40.5444C190.648 40.5444 189.193 39.0893 189.193 37.3158ZM199.93 31.6316V34.3145H202.022V39.1802C202.022 42.0451 203.113 43.2274 205.705 43.2274C206.319 43.2274 207.069 43.1364 207.592 43V40.4535C207.024 40.5672 206.569 40.6354 206.069 40.6354C204.977 40.6354 204.704 40.1806 204.704 38.3844V34.3145H207.592V31.6316H204.704V28.5848H202.022V30.6539C202.022 31.2451 201.612 31.6316 201.021 31.6316H199.93ZM217.902 34.3145V43H220.585V34.3145H223.381V31.6316H220.585V31.1996C220.585 29.4716 221.335 28.9941 222.677 28.9941H223.381V26.4021H222.449C219.653 26.4021 217.902 27.7436 217.902 31.0177V31.6316H215.992V34.3145H217.902ZM230.588 31.4042C227.336 31.4042 224.676 34.0417 224.676 37.3158C224.676 40.5672 227.336 43.2274 230.588 43.2274C233.862 43.2274 236.499 40.5672 236.499 37.3158C236.499 34.0417 233.862 31.4042 230.588 31.4042ZM227.359 37.3158C227.359 35.5423 228.814 34.0872 230.588 34.0872C232.361 34.0872 233.816 35.5423 233.816 37.3158C233.816 39.0893 232.361 40.5444 230.588 40.5444C228.814 40.5444 227.359 39.0893 227.359 37.3158ZM239.227 31.6316V38.4754C239.227 41.3629 241.046 43.2274 243.684 43.2274C245.025 43.2274 246.253 42.6589 247.094 41.7722V43H249.777V31.6316H247.094V37.7705C247.094 39.544 245.889 40.7036 244.343 40.7036C242.911 40.7036 241.91 39.7941 241.91 37.9069V31.6316H239.227ZM255.781 43V36.8611C255.781 35.0648 256.986 33.928 258.533 33.928C259.965 33.928 260.965 34.8147 260.965 36.7246V43H263.648V36.1562C263.648 33.2686 261.829 31.4042 259.192 31.4042C257.85 31.4042 256.623 31.9726 255.781 32.8594V31.6316H253.098V43H255.781ZM266.29 37.3158C266.29 40.5672 268.677 43.2274 271.928 43.2274C273.361 43.2274 274.68 42.4771 275.43 41.5448V43H278.113V26.6295H275.43V33.0413C274.68 32.1545 273.361 31.4042 271.928 31.4042C268.677 31.4042 266.29 34.0644 266.29 37.3158ZM272.201 34.0872C273.975 34.0872 275.43 35.5423 275.43 37.3158C275.43 39.0893 273.975 40.5444 272.201 40.5444C270.428 40.5444 268.973 39.0893 268.973 37.3158C268.973 35.5423 270.428 34.0872 272.201 34.0872Z" fill="#000E33"/>
</svg>
